<?xml version="1.0" standalone="no"?>
<!DOCTYPE svg PUBLIC "-//W3C//DTD SVG 20010904//EN"
 "http://www.w3.org/TR/2001/REC-SVG-20010904/DTD/svg10.dtd">
<svg version="1.0" xmlns="http://www.w3.org/2000/svg"
 width="766.000000pt" height="766.000000pt" viewBox="0 0 766.000000 766.000000"
 preserveAspectRatio="xMidYMid meet">
<metadata>
Created by potrace 1.14, written by Peter Selinger 2001-2017
</metadata>
<g transform="translate(0.000000,766.000000) scale(0.100000,-0.100000)"
fill="#000000" stroke="none">
<path d="M3820 7650 c0 -14 -1593 -3204 -1602 -3208 -5 -2 -8 -8 -8 -13 0 -5
-380 -770 -845 -1699 l-845 -1690 670 0 c368 0 670 -2 670 -5 0 -6 -254 -519
-270 -545 -19 -32 -68 -135 -68 -144 0 -5 -4 -12 -9 -15 -6 -5 -163 -316 -163
-324 0 -1 1116 -2 2480 -2 1364 0 2480 1 2480 3 0 2 -7 16 -15 32 -9 17 -12
30 -8 30 5 0 3 4 -2 8 -6 4 -31 47 -55 97 -25 50 -49 93 -53 96 -5 3 -8 9 -8
13 2 6 -117 249 -135 278 -5 7 -9 15 -10 18 -3 15 -19 47 -30 60 -7 8 -13 18
-14 22 -1 10 -46 103 -110 228 -30 58 -54 108 -54 112 -1 3 -4 10 -8 14 -5 4
-8 11 -8 16 0 4 278 8 618 8 339 0 641 0 670 0 l52 0 -1655 3310 c-910 1821
-1657 3310 -1660 3310 -3 0 -5 -5 -5 -10z"/>
</g>
</svg>
